<?xml version="1.0" standalone="no"?>
<!DOCTYPE svg PUBLIC "-//W3C//DTD SVG 20010904//EN"
 "http://www.w3.org/TR/2001/REC-SVG-20010904/DTD/svg10.dtd">
<svg version="1.0" xmlns="http://www.w3.org/2000/svg"
 width="1414.000000pt" height="1426.000000pt" viewBox="0 0 1414.000000 1426.000000"
 preserveAspectRatio="xMidYMid meet">

<g transform="translate(0.000000,1426.000000) scale(0.100000,-0.100000)"
fill="#000000" stroke="none">
<path d="M0 7130 l0 -7130 7070 0 7070 0 0 7130 0 7130 -7070 0 -7070 0 0
-7130z m10817 6380 c334 -20 627 -114 921 -293 91 -56 124 -85 82 -73 -142 39
-370 82 -540 100 -719 78 -1693 8 -2565 -183 -170 -37 -230 -51 -280 -66 -27
-7 -108 -30 -180 -50 -305 -86 -535 -171 -760 -280 -288 -140 -478 -293 -553
-444 -33 -66 -37 -82 -35 -143 5 -146 63 -260 216 -423 71 -76 182 -169 489
-413 620 -492 897 -820 1004 -1192 24 -84 27 -113 28 -245 1 -116 -3 -166 -18
-220 -45 -173 -141 -363 -256 -511 -59 -76 -259 -279 -335 -341 -91 -74 -243
-183 -255 -183 -5 0 -10 -3 -10 -8 0 -4 -17 -16 -37 -27 -21 -11 -61 -34 -89
-51 -69 -44 -410 -214 -427 -214 -4 0 -30 -11 -59 -24 -138 -63 -494 -186
-683 -235 -44 -12 -102 -28 -130 -36 -154 -43 -433 -103 -665 -144 -36 -7 -85
-16 -110 -21 -25 -5 -110 -19 -190 -30 -80 -12 -174 -25 -210 -31 -36 -5 -87
-11 -115 -13 -27 -3 -106 -11 -175 -20 -328 -41 -844 -78 -1270 -91 -85 -3
-220 -8 -299 -11 -191 -8 -1135 7 -1096 18 17 4 122 19 235 33 934 117 1989
338 2770 582 1028 320 1774 705 2150 1110 149 162 243 322 287 492 22 86 24
110 19 221 -6 156 -22 214 -96 365 -118 237 -319 458 -630 691 -115 86 -313
218 -395 263 l-60 33 50 -42 c28 -24 118 -111 200 -194 240 -242 339 -411 366
-626 42 -331 -220 -630 -772 -881 -123 -56 -349 -144 -430 -167 -19 -5 -92
-29 -164 -52 -219 -70 -658 -177 -1025 -249 -644 -126 -1644 -258 -2540 -336
-326 -28 -534 -45 -547 -45 -11 0 -13 273 -13 1449 0 1238 2 1467 15 1568 85
657 494 1218 1100 1507 74 36 315 120 375 131 19 3 71 13 115 21 44 9 139 19
210 23 191 11 7199 12 7382 1z m-918 -424 c-2 -2 -74 -22 -159 -45 -85 -22
-227 -61 -314 -86 -88 -25 -163 -45 -167 -45 -7 0 -29 54 -29 71 0 12 56 25
230 55 226 38 453 64 439 50z m1416 -76 c94 -5 220 -15 280 -21 114 -11 465
-65 473 -73 7 -8 -58 -16 -223 -26 -793 -51 -1449 -202 -1769 -407 -96 -61
-171 -141 -208 -220 -28 -59 -30 -71 -25 -141 5 -91 33 -158 101 -249 44 -58
195 -208 202 -200 2 2 -12 32 -30 68 -51 95 -69 169 -64 253 6 89 33 150 93
215 63 68 126 106 239 146 287 103 707 84 1060 -49 115 -43 289 -129 376 -185
169 -110 379 -309 486 -461 83 -119 190 -328 224 -438 5 -15 20 -65 34 -112
15 -46 38 -150 51 -229 l25 -144 0 -3181 c0 -2069 -4 -3219 -10 -3291 -33
-356 -144 -656 -357 -965 -43 -62 -168 -203 -244 -274 -235 -221 -571 -404
-864 -471 -221 -51 -134 -48 -1477 -52 -743 -2 -1258 0 -1258 5 0 5 37 42 83
83 164 147 347 318 495 463 198 195 594 622 755 815 22 25 51 60 66 76 15 17
59 72 99 123 40 51 79 100 87 110 102 125 311 404 410 547 132 191 152 221
263 398 311 491 544 953 729 1442 154 409 252 803 309 1235 21 168 30 616 15
791 -38 428 -144 813 -324 1177 -173 347 -351 594 -652 901 -297 304 -518 463
-1158 832 -34 20 -107 62 -162 94 -324 188 -507 332 -556 438 -41 92 -15 249
59 352 53 74 78 99 177 175 301 229 863 394 1500 440 300 21 453 24 690 10z
m-2732 -262 c30 -73 39 -61 -96 -141 -48 -29 -110 -70 -137 -92 -45 -36 -67
-44 -237 -87 -104 -26 -189 -47 -190 -48 -13 -1 4 27 39 67 75 87 200 179 346
253 79 40 230 108 243 109 4 1 18 -27 32 -61z m-95 -1071 c65 -62 170 -157
235 -211 64 -54 117 -101 117 -105 0 -9 -308 -173 -319 -169 -18 6 -185 152
-279 243 -97 93 -222 236 -222 253 0 5 37 19 83 31 45 12 123 32 172 45 50 14
92 25 93 25 2 1 56 -50 120 -112z m1127 -990 c105 -106 227 -241 273 -300 112
-143 224 -309 215 -318 -5 -4 -73 -21 -153 -38 -80 -16 -174 -37 -210 -45 -36
-9 -72 -16 -81 -16 -10 0 -38 38 -74 103 -101 179 -235 355 -399 525 -86 88
-98 105 -85 116 21 20 291 165 309 166 8 0 101 -86 205 -193z m774 -1290 c37
-98 39 -485 3 -652 -59 -276 -189 -549 -383 -813 -83 -111 -240 -293 -251
-290 -4 2 -131 124 -282 271 l-275 268 97 111 c285 324 421 583 471 897 l17
105 135 29 c73 15 199 43 279 61 178 41 178 41 189 13z m951 -947 c-86 -759
-404 -1547 -964 -2385 -222 -333 -583 -798 -837 -1080 -259 -287 -429 -465
-704 -734 -595 -583 -1222 -1102 -1939 -1604 l-209 -147 -1236 1 c-680 0
-1227 4 -1216 9 11 4 97 31 190 59 94 28 208 66 255 83 350 129 608 234 855
351 153 71 666 331 745 377 36 20 90 50 120 67 78 42 344 198 480 281 63 39
147 90 185 113 93 56 418 273 628 418 173 119 637 461 667 491 3 3 39 32 80
64 96 76 218 175 250 202 14 12 70 59 125 105 84 69 247 211 265 229 3 3 88
82 190 176 233 215 587 576 750 763 316 363 613 756 764 1010 18 31 52 87 75
124 66 108 224 419 284 562 66 155 121 315 168 485 38 140 47 134 29 -20z
m-2379 -987 c153 -152 279 -281 279 -287 -1 -13 -187 -153 -347 -260 -178
-120 -471 -300 -683 -418 -204 -113 -837 -432 -881 -443 -25 -6 -29 -1 -92
137 -36 79 -116 249 -177 378 -60 129 -109 238 -107 243 1 4 88 46 192 93 551
247 1092 541 1430 777 44 31 86 56 94 57 7 0 139 -125 292 -277z m-2590 -1038
c34 -72 73 -157 89 -190 15 -33 60 -130 100 -215 40 -85 83 -178 96 -207 l23
-51 -62 -25 c-34 -13 -130 -52 -212 -85 -188 -75 -703 -269 -935 -352 -343
-122 -1005 -339 -1013 -331 -13 13 -246 875 -239 882 4 4 115 39 247 79 556
166 1285 414 1730 588 55 22 103 39 108 38 4 -1 35 -60 68 -131z m-2693 -1212
c67 -246 118 -451 114 -455 -13 -12 -1113 -328 -1577 -452 -93 -26 -201 -55
-240 -66 -38 -10 -117 -31 -175 -45 -58 -15 -134 -35 -169 -46 -113 -34 -101
-90 -101 476 l0 495 23 10 c12 6 119 35 237 64 281 71 771 198 885 229 50 13
142 38 205 55 132 36 409 111 555 152 55 16 105 29 110 29 6 1 66 -200 133
-446z m2050 -3365 l3 -158 94 0 c109 0 110 -1 70 -80 l-25 -49 -67 -3 -68 -3
-3 -255 c-3 -289 2 -309 71 -343 l37 -17 -21 -53 c-11 -28 -22 -53 -23 -55 -6
-6 -88 29 -117 50 -17 13 -43 43 -57 68 l-27 45 -3 494 c-2 272 -1 500 2 508
4 10 22 13 68 11 l63 -3 3 -157z m-560 -168 c28 -12 52 -26 52 -30 0 -17 -43
-110 -52 -110 -5 0 -20 7 -34 17 -15 9 -54 18 -98 21 -60 4 -79 1 -114 -17
-60 -30 -76 -70 -51 -124 14 -32 62 -57 186 -101 116 -40 145 -54 189 -93 43
-39 65 -86 71 -154 5 -49 2 -67 -20 -111 -44 -89 -114 -131 -239 -144 -186
-19 -348 88 -348 231 l0 35 60 0 c49 0 62 -3 66 -17 27 -92 127 -137 244 -112
60 13 100 54 100 103 0 65 -52 102 -215 156 -92 30 -169 74 -200 115 -14 18
-31 57 -37 88 -10 47 -9 61 6 100 34 89 95 145 182 167 64 16 192 6 252 -20z
m3554 2 c53 -23 110 -78 137 -131 32 -62 44 -159 39 -324 -4 -135 -8 -158 -30
-208 -34 -75 -78 -122 -140 -150 -73 -33 -220 -34 -289 -2 -63 28 -110 77
-144 148 -26 56 -29 71 -33 210 -7 223 15 322 86 398 32 34 93 67 142 78 58
13 183 3 232 -19z m-4479 -8 c68 -34 93 -58 125 -119 l27 -50 0 -320 0 -320
-67 -3 -68 -3 0 303 c0 275 -2 307 -18 337 -31 57 -72 73 -177 69 -59 -3 -101
-10 -122 -21 l-33 -17 -2 -333 -3 -332 -67 -3 -68 -3 0 416 0 415 63 0 c35 0
67 -4 73 -10 6 -6 24 -4 49 5 24 8 80 14 138 15 86 0 104 -3 150 -26z m2407
-3 c30 -13 57 -24 59 -26 2 -3 -27 -93 -35 -103 -1 -2 -26 4 -55 12 -29 9 -87
16 -128 16 -97 0 -137 -19 -171 -80 -23 -42 -25 -56 -28 -212 -3 -149 -2 -171
16 -212 38 -84 133 -115 285 -93 100 15 97 17 112 -65 6 -34 5 -35 -37 -47
-65 -20 -198 -25 -270 -11 -104 20 -168 64 -210 141 -21 41 -23 57 -26 251 -4
234 3 272 63 351 66 86 121 108 265 103 80 -2 118 -9 160 -25z m767 6 c29 -15
33 -15 41 -1 6 12 23 14 73 12 l64 -3 0 -480 c0 -369 -3 -490 -13 -524 -18
-59 -75 -117 -139 -141 l-53 -20 -15 38 c-25 57 -23 68 15 94 51 34 70 79 70
166 0 39 -2 72 -5 72 -2 0 -24 -10 -47 -22 -37 -20 -58 -23 -148 -23 -94 0
-110 3 -155 27 -64 33 -87 59 -122 133 -28 60 -28 61 -28 265 0 191 2 208 22
253 39 83 92 134 173 164 50 19 225 12 267 -10z m2193 14 c28 -8 30 -36 4 -98
-12 -28 -19 -34 -37 -30 -103 25 -172 19 -217 -19 l-30 -26 0 -329 0 -329 -70
0 -70 0 2 413 3 412 64 3 c40 2 67 -1 71 -8 5 -9 19 -8 51 4 45 16 183 20 229
7z m639 -11 c52 -24 51 -24 51 -5 0 12 15 15 71 15 l70 0 -3 -497 c-3 -488 -3
-499 -25 -538 -35 -65 -102 -118 -162 -126 -20 -3 -26 2 -37 31 -20 55 -17 73
16 92 51 29 70 73 70 161 0 42 -2 77 -4 77 -2 0 -28 -11 -58 -25 -42 -20 -69
-25 -130 -25 -100 0 -170 25 -225 82 -76 79 -78 87 -81 328 -3 200 -2 220 18
272 25 67 96 138 163 161 65 23 211 21 266 -3z m-2355 -692 c54 -49 25 -128
-47 -128 -37 0 -62 21 -72 61 -5 19 0 34 20 57 32 38 64 41 99 10z"/>
<path d="M8513 1570 c-43 -14 -87 -60 -101 -107 -7 -24 -12 -106 -12 -204 0
-152 2 -167 23 -204 30 -53 87 -85 155 -85 69 0 113 19 148 66 l29 37 0 196
c0 188 -1 197 -23 234 -13 21 -38 45 -54 53 -38 20 -123 27 -165 14z"/>
<path d="M7255 1572 c-56 -5 -75 -12 -109 -43 -48 -42 -59 -100 -54 -299 3
-142 5 -162 24 -186 35 -48 70 -67 129 -72 100 -8 182 41 204 123 15 54 13
331 -2 374 -23 64 -110 111 -192 103z"/>
<path d="M10078 1570 c-58 -7 -97 -34 -123 -86 -18 -35 -20 -59 -20 -219 0
-162 2 -183 20 -214 29 -50 64 -71 127 -78 65 -6 115 8 160 45 51 43 58 73 58
262 0 148 -3 176 -19 208 -33 63 -108 93 -203 82z"/>
</g>
</svg>
