<?xml version="1.0" standalone="no"?>
<!DOCTYPE svg PUBLIC "-//W3C//DTD SVG 20010904//EN"
 "http://www.w3.org/TR/2001/REC-SVG-20010904/DTD/svg10.dtd">
<svg version="1.0" xmlns="http://www.w3.org/2000/svg"
 width="1414.000000pt" height="1426.000000pt" viewBox="0 0 1414.000000 1426.000000"
 preserveAspectRatio="xMidYMid meet">

<g transform="translate(0.000000,1426.000000) scale(0.100000,-0.100000)"
fill="#000000" stroke="none">
<path d="M0 7130 l0 -7130 7070 0 7070 0 0 7130 0 7130 -7070 0 -7070 0 0
-7130z m10823 6380 c264 -17 514 -83 740 -196 109 -55 283 -161 276 -169 -2
-2 -49 7 -104 21 -127 30 -369 71 -505 84 -994 95 -2394 -81 -3341 -421 -575
-205 -912 -441 -978 -683 -17 -62 2 -178 43 -261 67 -134 213 -291 436 -467
449 -353 634 -512 791 -675 424 -443 556 -845 414 -1262 -33 -97 -121 -264
-192 -364 -83 -117 -325 -357 -465 -461 -443 -329 -1044 -578 -1835 -760 -928
-214 -2180 -322 -3478 -300 -242 4 -429 11 -415 15 14 4 120 19 235 34 1553
193 3087 601 4019 1067 394 197 655 374 871 592 173 175 273 338 321 523 23
87 25 113 21 223 -4 100 -10 142 -32 210 -37 117 -112 258 -192 365 -87 115
-268 296 -408 408 -116 93 -441 315 -509 348 -41 20 -41 20 14 -27 30 -26 118
-111 195 -188 230 -231 335 -408 365 -615 57 -387 -300 -729 -1046 -1004 -812
-299 -2145 -538 -3834 -687 -379 -33 -574 -50 -592 -50 -17 0 -18 76 -18 1448
0 925 4 1479 10 1537 51 441 242 836 560 1156 325 326 775 531 1230 558 187
12 7226 12 7403 1z m-948 -431 c-16 -5 -82 -23 -145 -40 -63 -17 -193 -53
-289 -80 -95 -27 -177 -49 -181 -49 -8 0 -30 54 -30 71 0 5 17 13 38 18 106
28 511 89 597 89 39 0 40 0 10 -9z m1708 -89 c174 -18 475 -64 485 -75 8 -8
-43 -14 -213 -25 -354 -22 -642 -59 -950 -121 -310 -62 -534 -132 -727 -229
-326 -163 -420 -383 -265 -624 40 -62 223 -254 233 -244 3 3 -11 34 -30 69
-70 129 -85 266 -39 369 63 142 254 256 498 295 115 19 350 19 484 0 429 -61
858 -288 1128 -595 231 -263 371 -572 433 -955 20 -117 20 -189 20 -3306 0
-2181 -3 -3220 -11 -3295 -44 -449 -226 -844 -539 -1168 -318 -328 -734 -531
-1187 -576 -73 -7 -491 -10 -1297 -8 l-1189 3 164 150 c863 787 1547 1587
2094 2450 625 986 983 1940 1064 2835 16 171 13 547 -4 716 -69 653 -314 1241
-733 1754 -124 151 -378 406 -517 519 -232 187 -331 252 -750 495 -610 354
-779 475 -843 602 -42 84 -35 189 21 304 37 76 149 195 242 257 272 182 670
313 1166 382 127 18 226 27 489 45 132 9 591 -5 773 -24z m-3000 -242 c13 -35
22 -66 20 -70 -2 -3 -37 -25 -77 -47 -41 -22 -104 -63 -139 -89 -35 -27 -70
-52 -76 -56 -16 -10 -385 -106 -389 -101 -8 8 19 43 75 97 99 96 163 141 309
217 74 38 231 109 246 110 3 1 17 -27 31 -61z m-128 -1039 c44 -44 149 -139
233 -211 83 -72 152 -133 152 -137 0 -7 -302 -171 -315 -171 -13 0 -173 138
-284 245 -105 101 -221 235 -221 254 0 6 12 14 28 18 15 3 92 23 172 44 80 20
147 38 150 38 3 1 41 -35 85 -80z m1150 -1011 c99 -101 220 -232 268 -293 110
-137 239 -327 229 -336 -7 -7 -422 -99 -446 -99 -8 0 -33 35 -57 78 -100 184
-247 378 -413 550 -75 77 -97 105 -88 114 18 18 296 168 312 168 8 0 96 -82
195 -182z m794 -1338 c10 -39 14 -122 15 -285 0 -202 -2 -242 -22 -331 -62
-286 -211 -592 -415 -854 -84 -108 -210 -251 -218 -248 -18 7 -549 531 -549
541 1 7 39 55 87 107 273 302 423 585 470 890 l18 114 285 62 c157 34 292 62
300 61 9 -1 20 -24 29 -57z m936 -953 c-108 -897 -563 -1868 -1349 -2882 -806
-1041 -1966 -2109 -3227 -2973 l-75 -52 -1235 1 -1234 1 65 21 c296 94 531
175 670 230 1245 488 2646 1345 3845 2351 405 340 964 884 1256 1221 686 793
1097 1501 1270 2184 31 122 37 81 14 -102z m-2374 -944 c154 -152 279 -282
279 -287 -1 -13 -160 -132 -333 -250 -173 -118 -460 -294 -682 -420 -196 -110
-850 -440 -896 -451 -25 -6 -29 1 -202 373 -97 208 -177 381 -177 384 0 3 107
54 238 113 537 244 1007 499 1357 738 61 42 116 76 124 76 8 1 139 -124 292
-276z m-2471 -1293 c99 -211 180 -390 180 -397 0 -14 -5 -17 -250 -115 -204
-82 -533 -207 -845 -320 -346 -127 -1109 -378 -1118 -368 -13 12 -246 874
-238 881 3 4 143 48 311 99 487 147 1097 354 1593 540 100 37 183 67 185 66 1
-2 83 -175 182 -386z m-2812 -957 c67 -246 118 -450 114 -454 -30 -30 -2217
-637 -2249 -625 -11 4 -13 94 -13 496 l0 490 23 10 c12 5 94 28 182 50 559
142 1225 318 1605 424 107 30 200 55 205 55 6 1 66 -200 133 -446z m2050
-3365 l3 -158 94 0 c109 0 110 -1 70 -80 l-25 -49 -67 -3 -68 -3 -3 -252 c-3
-291 1 -309 67 -343 l41 -20 -20 -51 c-10 -28 -21 -53 -23 -55 -11 -12 -105
34 -138 67 -68 68 -69 80 -69 620 0 373 3 478 13 482 6 2 37 4 67 3 l55 -1 3
-157z m-1472 -181 c56 -28 98 -72 123 -127 13 -30 16 -84 16 -355 l0 -320 -67
-3 -68 -3 0 302 c0 341 -2 355 -71 389 -47 25 -153 27 -227 5 l-52 -16 -2
-337 -3 -337 -67 -3 -68 -3 0 416 0 415 63 0 c35 0 68 -5 73 -10 8 -8 20 -7
40 1 82 33 231 26 310 -14z m912 13 c28 -12 52 -27 52 -32 0 -16 -42 -108 -50
-108 -4 0 -22 8 -41 17 -50 25 -140 29 -194 8 -52 -19 -75 -47 -75 -90 0 -57
51 -90 228 -149 155 -52 220 -120 229 -239 4 -54 1 -69 -24 -117 -39 -74 -98
-114 -194 -130 -206 -35 -375 61 -391 220 l-3 35 63 3 c53 3 63 0 68 -15 20
-69 71 -106 158 -117 63 -7 115 6 156 40 24 21 30 34 30 65 0 65 -34 92 -188
148 -189 69 -238 107 -264 205 -29 109 49 231 174 272 64 21 199 13 266 -16z
m1452 -1 c97 -30 96 -28 74 -88 -10 -28 -23 -51 -30 -51 -6 0 -31 7 -54 15
-58 20 -182 20 -226 -1 -21 -10 -45 -35 -62 -63 -27 -45 -27 -48 -27 -226 0
-213 7 -233 90 -275 41 -20 63 -24 125 -23 41 1 97 6 123 11 54 11 58 7 72
-71 7 -34 6 -36 -32 -47 -65 -18 -224 -24 -284 -10 -117 27 -193 94 -220 193
-6 24 -9 120 -7 241 3 179 5 206 24 247 72 155 232 209 434 148z m794 -3 c47
-20 46 -20 46 -1 0 13 12 15 68 13 l67 -3 0 -485 c0 -534 0 -532 -61 -600 -34
-37 -126 -86 -143 -75 -5 3 -16 26 -25 53 -16 44 -16 48 0 57 45 27 74 60 84
93 9 35 14 162 6 162 -2 0 -29 -12 -61 -26 -51 -24 -66 -26 -148 -22 -145 7
-212 51 -269 174 -22 46 -23 62 -23 254 0 200 1 206 26 260 47 100 126 155
241 168 72 9 137 1 192 -22z m1274 19 c78 -23 131 -70 172 -149 l35 -69 0
-201 c0 -196 -1 -202 -26 -256 -60 -129 -137 -175 -289 -175 -84 0 -102 3
-152 28 -86 42 -137 114 -158 224 -18 88 -8 362 14 424 20 55 76 123 120 146
84 44 193 55 284 28z m1570 -19 c38 -20 42 -20 42 -1 0 13 12 15 68 13 l67 -3
0 -495 c0 -488 0 -496 -22 -535 -11 -22 -34 -52 -50 -67 -34 -32 -122 -73
-133 -61 -4 4 -14 29 -23 54 l-15 47 36 23 c53 34 72 79 72 167 0 39 -2 72 -4
72 -2 0 -29 -12 -61 -26 -51 -24 -66 -26 -148 -22 -78 3 -100 8 -145 33 -61
33 -104 87 -127 156 -14 40 -16 87 -13 261 3 196 5 216 25 253 27 50 75 97
130 125 76 39 231 42 301 6z m-631 11 c9 -6 8 -20 -4 -60 -8 -28 -18 -56 -22
-60 -4 -4 -30 -3 -57 3 -69 16 -147 4 -184 -27 l-30 -25 0 -329 0 -329 -70 0
-70 0 2 413 3 412 64 3 c38 2 67 -1 71 -8 4 -7 19 -6 46 5 41 15 227 17 251 2z
m-1731 -700 c32 -28 36 -78 8 -108 -27 -30 -87 -26 -113 7 -25 32 -26 46 -6
84 23 44 70 52 111 17z"/>
<path d="M7185 1558 c-83 -46 -98 -98 -93 -325 3 -176 7 -189 71 -237 62 -46
199 -27 251 35 40 47 48 97 44 275 -3 183 -9 198 -84 241 -43 25 -152 32 -189
11z"/>
<path d="M8505 1566 c-86 -32 -105 -87 -105 -303 0 -145 2 -163 23 -203 31
-64 90 -93 174 -88 75 5 108 25 141 89 22 42 23 53 20 219 -3 196 -15 237 -76
273 -43 25 -127 31 -177 13z"/>
<path d="M10020 1551 c-78 -41 -94 -101 -88 -327 3 -151 14 -185 69 -226 33
-25 125 -34 173 -18 53 17 104 65 116 108 5 20 10 109 10 196 0 192 -12 231
-84 265 -55 27 -148 28 -196 2z"/>
</g>
</svg>
